<svg xmlns="http://www.w3.org/2000/svg" version="1.1" xmlns:xlink="http://www.w3.org/1999/xlink" xmlns:svgjs="http://svgjs.com/svgjs" id="Pattern774SvgRootPreview" width="100%" height="100%"><defs><pattern x="0" y="0" width="1" height="1" patternUnits="userSpaceOnUse" id="Pattern774Layer1"><g id="PatternRootContent1"><g id="Pattern774Layer1background"><rect width="1" height="1" id="Pattern774Background1" fill="#8c4d70"></rect></g></g></pattern><pattern x="0" y="0" width="20" height="29.411764705882355" patternUnits="userSpaceOnUse" id="Pattern774Layer2" viewBox="0 0 20 29.411764705882355" preserveAspectRatio="xMidYMid slice"><g id="PatternRootContent2" transform="scale(0.5882352941176471) rotate(0)"><g id="Pattern774Layer2Element1"></g><g id="Pattern774Layer2Element2"><use xlink:href="#Pattern774Element2" x="15" y="-22" transform="translate(34, -12.5) scale(1) translate(-34, 12.5) rotate(0, 34, -12.5)"></use><use xlink:href="#Pattern774Element2" x="-19" y="-22" transform="translate(0, -12.5) scale(1) translate(0, 12.5) rotate(0, 0, -12.5)"></use><use xlink:href="#Pattern774Element2" x="-2" y="3" transform="translate(17, 12.5) scale(1) translate(-17, -12.5) rotate(0, 17, 12.5)"></use><use xlink:href="#Pattern774Element2" x="-36" y="3" transform="translate(-17, 12.5) scale(1) translate(17, -12.5) rotate(0, -17, 12.5)"></use><use xlink:href="#Pattern774Element2" x="32" y="3" transform="translate(51, 12.5) scale(1) translate(-51, -12.5) rotate(0, 51, 12.5)"></use><use xlink:href="#Pattern774Element2" x="15" y="28" transform="translate(34, 37.5) scale(1) translate(-34, -37.5) rotate(0, 34, 37.5)"></use><use xlink:href="#Pattern774Element2" x="-19" y="28" transform="translate(0, 37.5) scale(1) translate(0, -37.5) rotate(0, 0, 37.5)"></use></g></g></pattern><symbol id="Pattern774Element2"><g class="fill_color_0" fill="#03738c"><path d="M38,0L19.001,19L0,0L19.001,10.625999450683594Z" transform="matrix(1,0,0,1,0,0)"></path><path d="M0,19L18.999,5.960464477539062e-7L38,19L18.999,8.374000549316406Z" transform="matrix(1,0,0,1,0,0)"></path></g></symbol></defs><rect width="100%" height="100%" id="Pattern774RctLayer1" fill="url(#Pattern774Layer1)"></rect><rect width="100%" height="100%" id="Pattern774RctLayer2" fill="url(#Pattern774Layer2)"></rect></svg>